
	<svg xmlns="http://www.w3.org/2000/svg" xmlns:xlink="http://www.w3.org/1999/xlink" version="1.1" width="128" height="128" viewBox="0 0 100 100">


		<defs>
			<linearGradient id="Gradient_2" gradientUnits="userSpaceOnUse" x1="50" y1="50" x2="50" y2="0" spreadMethod="pad">
			<stop offset="0%" stop-color="#FFFFFF" stop-opacity="0.7"/>
			<stop offset="100%" stop-color="#FFFFFF" stop-opacity="0.1"/>
		</linearGradient><linearGradient id="Gradient_3" gradientUnits="userSpaceOnUse" x1="50" y1="75" x2="50" y2="0" spreadMethod="pad">
			<stop offset="0%" stop-color="#FFFFFF" stop-opacity="0.1"/>
			<stop offset="100%" stop-color="#FFFFFF" stop-opacity="0.7"/>
		</linearGradient><g id="background">
			<path fill="url(#background-gradient)" stroke="none" d=" M 93.35 75 L 93.35 25 50 0 6.65 25 6.65 75 50 100 93.35 75 Z"/>
		</g><mask id="mask">
			<path fill="#FFFFFF" stroke="none" d=" M 93.35 75 L 93.35 25 50 0 6.65 25 6.65 75 50 100 93.35 75 Z"/>
		</mask><g id="gloss-top">
			<path fill="url(#Gradient_2)" stroke="none" d=" M 93.35 25.05 L 93.35 25 50 0 6.65 25 6.65 25.05 50 50 93.35 25.05 Z"/>
		</g><g id="gloss-right">
			<path fill="url(#Gradient_3)" stroke="none" d=" M 93.35 75 L 93.35 25 50 0 6.65 25 93.35 75 Z"/>
		</g><g id="gloss-left">
			<path fill="url(#Gradient_3)" stroke="none" d=" M 6.65 25 L 6.65 75 93.35 25 50 0 6.65 25 Z"/>
		</g>
			
	<linearGradient id="background-gradient" x1="0" y1="0" y2="1" x2="0" >
		<stop stop-color="#057c95" offset="0%"/>
		<stop stop-color="#042449" offset="100%"/>
	</linearGradient>

			
	<filter id="inner-shadow" x="-50%" y="-50%" width="200%" height="200%">
		<feComponentTransfer in="SourceAlpha">
			<feFuncA type="table" tableValues="1 0" />
		</feComponentTransfer>
		<feComponentTransfer>
			<feFuncA type="linear" slope="0.9"/>
		</feComponentTransfer>
		<feGaussianBlur stdDeviation="0" />
		<feOffset dx="-0.9999999999999999" dy="1" result="offsetblur" />
		<feFlood flood-color="#000" result="color" />
		<feComposite in2="offsetblur" operator="in" />
		<feComposite in2="SourceAlpha" operator="in" />
		<feMerge>
			<feMergeNode in="SourceGraphic" />
			<feMergeNode />
		</feMerge>
	</filter>

			
			<g transform="scale(3.5714285714285716)" id="picture"><path d="M7 0H1C.4 0 0 .4 0 1v6c0 .6.4 1 1 1h6c.6 0 1-.4 1-1V1c0-.6-.4-1-1-1zM6 6H2V2h4v4zm11-6h-6c-.6 0-1 .4-1 1v6c0 .6.4 1 1 1h6c.6 0 1-.4 1-1V1c0-.6-.4-1-1-1zm-1 6h-4V2h4v4zm11-6h-6c-.6 0-1 .4-1 1v6c0 .6.4 1 1 1h6c.6 0 1-.4 1-1V1c0-.6-.4-1-1-1zm-1 6h-4V2h4v4zM7 10H1c-.6 0-1 .4-1 1v6c0 .6.4 1 1 1h6c.6 0 1-.4 1-1v-6c0-.6-.4-1-1-1zm-1 6H2v-4h4v4zm11-6h-6c-.6 0-1 .4-1 1v6c0 .6.4 1 1 1h6c.6 0 1-.4 1-1v-6c0-.6-.4-1-1-1zm-1 6h-4v-4h4v4zm11-6h-6c-.6 0-1 .4-1 1v6c0 .6.4 1 1 1h6c.6 0 1-.4 1-1v-6c0-.6-.4-1-1-1zm-1 6h-4v-4h4v4zM7 20H1c-.6 0-1 .4-1 1v6c0 .6.4 1 1 1h6c.6 0 1-.4 1-1v-6c0-.6-.4-1-1-1zm-1 6H2v-4h4v4zm11-6h-6c-.6 0-1 .4-1 1v6c0 .6.4 1 1 1h6c.6 0 1-.4 1-1v-6c0-.6-.4-1-1-1zm-1 6h-4v-4h4v4zm11-6h-6c-.6 0-1 .4-1 1v6c0 .6.4 1 1 1h6c.6 0 1-.4 1-1v-6c0-.6-.4-1-1-1zm-1 6h-4v-4h4v4z"/></g>
			
	<linearGradient id="picture-gradient" x1="0" y1="0" y2="1" x2="0" >
		<stop stop-color="#eae8e8" offset="0%"/>
		<stop stop-color="#f6f5f4" offset="100%"/>
	</linearGradient>

		</defs>

		

			<use xlink:href="#background" fill="url(#background-gradient)" />

		

			<g mask="url(#mask)">
				<g transform="
				        translate(
                                50 50
)
                            translate(0 0)  scale(0.5)  
                            translate(
                                -50 -50
)">
						<use xlink:href="#picture" fill="url(#picture-gradient)" filter="url(#inner-shadow)" />
				</g>
			</g>

		

			<use xlink:href="#gloss-top" opacity="1" />


	</svg>
