
	<svg xmlns="http://www.w3.org/2000/svg" xmlns:xlink="http://www.w3.org/1999/xlink" version="1.1" width="128" height="128" viewBox="0 0 100 100">


		<defs>
			<linearGradient id="Gradient_2" gradientUnits="userSpaceOnUse" x1="50" y1="50" x2="50" y2="0" spreadMethod="pad">
			<stop offset="0%" stop-color="#FFFFFF" stop-opacity="0.7"/>
			<stop offset="100%" stop-color="#FFFFFF" stop-opacity="0.1"/>
		</linearGradient><linearGradient id="Gradient_3" gradientUnits="userSpaceOnUse" x1="50" y1="75" x2="50" y2="0" spreadMethod="pad">
			<stop offset="0%" stop-color="#FFFFFF" stop-opacity="0.1"/>
			<stop offset="100%" stop-color="#FFFFFF" stop-opacity="0.7"/>
		</linearGradient><g id="background">
			<path fill="url(#background-gradient)" stroke="none" d=" M 93.35 75 L 93.35 25 50 0 6.65 25 6.65 75 50 100 93.35 75 Z"/>
		</g><mask id="mask">
			<path fill="#FFFFFF" stroke="none" d=" M 93.35 75 L 93.35 25 50 0 6.65 25 6.65 75 50 100 93.35 75 Z"/>
		</mask><g id="gloss-top">
			<path fill="url(#Gradient_2)" stroke="none" d=" M 93.35 25.05 L 93.35 25 50 0 6.65 25 6.65 25.05 50 50 93.35 25.05 Z"/>
		</g><g id="gloss-right">
			<path fill="url(#Gradient_3)" stroke="none" d=" M 93.35 75 L 93.35 25 50 0 6.65 25 93.35 75 Z"/>
		</g><g id="gloss-left">
			<path fill="url(#Gradient_3)" stroke="none" d=" M 6.65 25 L 6.65 75 93.35 25 50 0 6.65 25 Z"/>
		</g>
			
	<linearGradient id="background-gradient" x1="0" y1="0" y2="1" x2="0" >
		<stop stop-color="#057c95" offset="0%"/>
		<stop stop-color="#042449" offset="100%"/>
	</linearGradient>

			
			
			<g transform="scale(2.0833333333333335)" id="picture"><path d="M41.1 21.1l3.6.8c-1-9.8-8.8-17.5-18.5-18.5L27 7c7.1 1.2 12.8 6.9 14.1 14.1zm-20-14.2l.8-3.6c-9.8 1-17.5 8.8-18.5 18.5L7 21c1.2-7.1 6.9-12.8 14.1-14.1zm5.8 34.2l-.8 3.6c9.8-1 17.5-8.8 18.5-18.5L41 27c-1.2 7.1-6.9 12.8-14.1 14.1zm-20-14.2l-3.6-.8c1 9.8 8.8 17.5 18.5 18.5L21 41c-7.1-1.2-12.8-6.9-14.1-14.1z M33.9 33.9l-3.9-6L48 24l-18-3.9 3.9-6-6 3.9L24 0l-3.9 18-6-3.9 3.9 6L0 24l18 3.9-3.9 6 6-3.9L24 48l3.9-18 6 3.9zM24 27.4c-1.9 0-3.4-1.5-3.4-3.4s1.5-3.4 3.4-3.4 3.4 1.5 3.4 3.4-1.5 3.4-3.4 3.4z"/></g>
			
	<linearGradient id="picture-gradient" x1="0" y1="0" y2="1" x2="0" >
		<stop stop-color="#ffffff" offset="0%"/>
		<stop stop-color="#e5eff9" offset="100%"/>
	</linearGradient>

		</defs>

		

			<use xlink:href="#background" fill="url(#background-gradient)" />

		

			<g mask="url(#mask)">
				<g transform="
				        translate(
                                50 50
)
                            translate(0 0)  scale(0.5)  
                            translate(
                                -50 -50
)">
						<use xlink:href="#picture" fill="url(#picture-gradient)"  />
				</g>
			</g>

		

			<use xlink:href="#gloss-top" opacity="1" />


	</svg>
