
	<svg xmlns="http://www.w3.org/2000/svg" xmlns:xlink="http://www.w3.org/1999/xlink" version="1.1" width="128" height="128" viewBox="0 0 100 100">


		<defs>
			<linearGradient id="Gradient_2" gradientUnits="userSpaceOnUse" x1="50" y1="50" x2="50" y2="0" spreadMethod="pad">
			<stop offset="0%" stop-color="#FFFFFF" stop-opacity="0.7"/>
			<stop offset="100%" stop-color="#FFFFFF" stop-opacity="0.1"/>
		</linearGradient><linearGradient id="Gradient_3" gradientUnits="userSpaceOnUse" x1="50" y1="75" x2="50" y2="0" spreadMethod="pad">
			<stop offset="0%" stop-color="#FFFFFF" stop-opacity="0.1"/>
			<stop offset="100%" stop-color="#FFFFFF" stop-opacity="0.7"/>
		</linearGradient><g id="background">
			<path fill="url(#background-gradient)" stroke="none" d=" M 93.35 75 L 93.35 25 50 0 6.65 25 6.65 75 50 100 93.35 75 Z"/>
		</g><mask id="mask">
			<path fill="#FFFFFF" stroke="none" d=" M 93.35 75 L 93.35 25 50 0 6.65 25 6.65 75 50 100 93.35 75 Z"/>
		</mask><g id="gloss-top">
			<path fill="url(#Gradient_2)" stroke="none" d=" M 93.35 25.05 L 93.35 25 50 0 6.65 25 6.65 25.05 50 50 93.35 25.05 Z"/>
		</g><g id="gloss-right">
			<path fill="url(#Gradient_3)" stroke="none" d=" M 93.35 75 L 93.35 25 50 0 6.65 25 93.35 75 Z"/>
		</g><g id="gloss-left">
			<path fill="url(#Gradient_3)" stroke="none" d=" M 6.65 25 L 6.65 75 93.35 25 50 0 6.65 25 Z"/>
		</g>
			
	<linearGradient id="background-gradient" x1="0" y1="0" y2="1" x2="0" >
		<stop stop-color="#057c95" offset="0%"/>
		<stop stop-color="#042449" offset="100%"/>
	</linearGradient>

			
			
			<g transform="scale(3.3222593046300797) translate(-3 3.049999237060547)" id="picture"><path d="M22.2 19c-.2-.2-.5-.3-.7-.1-1.2.8-2.6 1.2-4 1.2-4.1 0-7.5-3.4-7.5-7.5 0-3.4 2.3-6.4 5.6-7.3.2-.1.4-.3.4-.5v-6.1c0-.3-.2-.5-.5-.5h-.2C8.3-.8 3 5.4 3 12.5 3 20.5 9.5 27 17.5 27c2.9 0 5.7-.9 8.1-2.5.1-.1.2-.2.2-.3 0-.1 0-.3-.1-.4L22.2 19zM18.5 4c4.1 0 7.5 3.4 7.5 7.5 0 .3.2.5.5.5h6c.3 0 .5-.2.5-.5C33 3.5 26.5-3 18.5-3c-.3 0-.5.2-.5.5v6c0 .3.2.5.5.5z M32.5 13h-6c-.3 0-.5.2-.5.5 0 2.4-1.3 4.1-2.3 5.1-.2.2-.2.5 0 .7l4 4.5c.1.1.2.2.4.3h.1c.1 0 .2 0 .3-.1 2.9-2.7 4.6-6.5 4.6-10.5-.1-.3-.3-.5-.6-.5z"/></g>
			
	<linearGradient id="picture-gradient" x1="0" y1="0" y2="1" x2="0" >
		<stop stop-color="#ffffff" offset="0%"/>
		<stop stop-color="#e5eff9" offset="100%"/>
	</linearGradient>

		</defs>

		

			<use xlink:href="#background" fill="url(#background-gradient)" />

		

			<g mask="url(#mask)">
				<g transform="
				        translate(
                                50 50
)
                            translate(0 0)  scale(0.5)  
                            translate(
                                -50 -50
)">
						<use xlink:href="#picture" fill="url(#picture-gradient)"  />
				</g>
			</g>

		

			<use xlink:href="#gloss-top" opacity="1" />


	</svg>
