
	<svg xmlns="http://www.w3.org/2000/svg" xmlns:xlink="http://www.w3.org/1999/xlink" version="1.1" width="128" height="128" viewBox="0 0 100 100">


		<defs>
			<linearGradient id="Gradient_2" gradientUnits="userSpaceOnUse" x1="50" y1="50" x2="50" y2="0" spreadMethod="pad">
			<stop offset="0%" stop-color="#FFFFFF" stop-opacity="0.7"/>
			<stop offset="100%" stop-color="#FFFFFF" stop-opacity="0.1"/>
		</linearGradient><linearGradient id="Gradient_3" gradientUnits="userSpaceOnUse" x1="50" y1="75" x2="50" y2="0" spreadMethod="pad">
			<stop offset="0%" stop-color="#FFFFFF" stop-opacity="0.1"/>
			<stop offset="100%" stop-color="#FFFFFF" stop-opacity="0.7"/>
		</linearGradient><g id="background">
			<path fill="url(#background-gradient)" stroke="none" d=" M 93.35 75 L 93.35 25 50 0 6.65 25 6.65 75 50 100 93.35 75 Z"/>
		</g><mask id="mask">
			<path fill="#FFFFFF" stroke="none" d=" M 93.35 75 L 93.35 25 50 0 6.65 25 6.65 75 50 100 93.35 75 Z"/>
		</mask><g id="gloss-top">
			<path fill="url(#Gradient_2)" stroke="none" d=" M 93.35 25.05 L 93.35 25 50 0 6.65 25 6.65 25.05 50 50 93.35 25.05 Z"/>
		</g><g id="gloss-right">
			<path fill="url(#Gradient_3)" stroke="none" d=" M 93.35 75 L 93.35 25 50 0 6.65 25 93.35 75 Z"/>
		</g><g id="gloss-left">
			<path fill="url(#Gradient_3)" stroke="none" d=" M 6.65 25 L 6.65 75 93.35 25 50 0 6.65 25 Z"/>
		</g>
			
	<linearGradient id="background-gradient" x1="0" y1="0" y2="1" x2="0" >
		<stop stop-color="#057c95" offset="0%"/>
		<stop stop-color="#042449" offset="100%"/>
	</linearGradient>

			
			
			<g transform="scale(3.300329908352216) translate(0.10000000149011612 0.3000001311302185)" id="picture"><path d="M28.2 5l1.1-1c.9-.9.9-2.4 0-3.4-.9-.9-2.5-.9-3.4 0L24.7 2c-3.1-1.7-6.2-2-9.1-2-4.4 0-6.8 2.2-6.8 6.2 0 4.5 4.4 7.8 4.6 8 .1.1.2.1.2.1L.1 29.2c-.2.2-.2.5 0 .7.1.1.3.1.4.1.1 0 .2 0 .3-.1L16 16.1c.5.4 1.2.8 1.9 1.2 2.5 1.6 6 3.8 6 5.9 0 2.8-2.5 5.8-9.6 5.8-.3 0-.5.2-.5.5s.2.5.5.5c7.8 0 10.6-3.7 10.6-6.8 0-2.6-3.6-4.9-6.5-6.7-.6-.4-1.2-.8-1.7-1.1l10.7-9.7C28.5 7 29 8.3 29 9.3c0 2.8-1.1 4.3-3.3 4.5-.3 0-.5.3-.4.6 0 .3.2.4.5.4h.1c2.7-.3 4.2-2.3 4.2-5.5C30 8 29.4 6.6 28.2 5zm-.9-2.3c.2.2.2.5 0 .7l-.3.3c-.1-.1-.2-.2-.3-.4-.2-.2-.5-.2-.7 0l.6-.6c.2-.2.5-.2.7 0zM14 13.3s-4.2-3.2-4.2-7.2C9.8 1.9 13 1 15.6 1c2.7 0 5.6.2 8.4 1.8l-9.8 10.9c0-.2-.1-.3-.2-.4zm12.1-8.7c-.1.1-.2.1-.4.1s-.3 0-.4-.1c-.2-.2-.2-.5 0-.7l.7-.6c-.2.2-.2.5 0 .7.1.1.2.2.3.4l-.2.2z"/></g>
			
	<linearGradient id="picture-gradient" x1="0" y1="0" y2="1" x2="0" >
		<stop stop-color="#ffffff" offset="0%"/>
		<stop stop-color="#e5eff9" offset="100%"/>
	</linearGradient>

		</defs>

		

			<use xlink:href="#background" fill="url(#background-gradient)" />

		

			<g mask="url(#mask)">
				<g transform="
				        translate(
                                50 50
)
                            translate(0 0)  scale(0.5)  
                            translate(
                                -50 -50
)">
						<use xlink:href="#picture" fill="url(#picture-gradient)"  />
				</g>
			</g>

		

			<use xlink:href="#gloss-top" opacity="1" />


	</svg>
