
	<svg xmlns="http://www.w3.org/2000/svg" xmlns:xlink="http://www.w3.org/1999/xlink" version="1.1" width="128" height="128" viewBox="0 0 100 100">


		<defs>
			<linearGradient id="Gradient_2" gradientUnits="userSpaceOnUse" x1="50" y1="50" x2="50" y2="0" spreadMethod="pad">
			<stop offset="0%" stop-color="#FFFFFF" stop-opacity="0.7"/>
			<stop offset="100%" stop-color="#FFFFFF" stop-opacity="0.1"/>
		</linearGradient><linearGradient id="Gradient_3" gradientUnits="userSpaceOnUse" x1="50" y1="75" x2="50" y2="0" spreadMethod="pad">
			<stop offset="0%" stop-color="#FFFFFF" stop-opacity="0.1"/>
			<stop offset="100%" stop-color="#FFFFFF" stop-opacity="0.7"/>
		</linearGradient><g id="background">
			<path fill="url(#background-gradient)" stroke="none" d=" M 93.35 75 L 93.35 25 50 0 6.65 25 6.65 75 50 100 93.35 75 Z"/>
		</g><mask id="mask">
			<path fill="#FFFFFF" stroke="none" d=" M 93.35 75 L 93.35 25 50 0 6.65 25 6.65 75 50 100 93.35 75 Z"/>
		</mask><g id="gloss-top">
			<path fill="url(#Gradient_2)" stroke="none" d=" M 93.35 25.05 L 93.35 25 50 0 6.65 25 6.65 25.05 50 50 93.35 25.05 Z"/>
		</g><g id="gloss-right">
			<path fill="url(#Gradient_3)" stroke="none" d=" M 93.35 75 L 93.35 25 50 0 6.65 25 93.35 75 Z"/>
		</g><g id="gloss-left">
			<path fill="url(#Gradient_3)" stroke="none" d=" M 6.65 25 L 6.65 75 93.35 25 50 0 6.65 25 Z"/>
		</g>
			
	<linearGradient id="background-gradient" x1="0" y1="0" y2="1" x2="0" >
		<stop stop-color="#057c95" offset="0%"/>
		<stop stop-color="#042449" offset="100%"/>
	</linearGradient>

			
	<filter id="inner-shadow" x="-50%" y="-50%" width="200%" height="200%">
		<feComponentTransfer in="SourceAlpha">
			<feFuncA type="table" tableValues="1 0" />
		</feComponentTransfer>
		<feComponentTransfer>
			<feFuncA type="linear" slope="0.9"/>
		</feComponentTransfer>
		<feGaussianBlur stdDeviation="0" />
		<feOffset dx="-0.9999999999999999" dy="1" result="offsetblur" />
		<feFlood flood-color="#000" result="color" />
		<feComposite in2="offsetblur" operator="in" />
		<feComposite in2="SourceAlpha" operator="in" />
		<feMerge>
			<feMergeNode in="SourceGraphic" />
			<feMergeNode />
		</feMerge>
	</filter>

			
			<g transform="scale(1.0729614085238022) translate(-3.4000000953674316 -3.3999998569488525)" id="picture"><path d="M92.9 3.4H7.1C5 3.4 3.4 5 3.4 7.1v85.8c0 2.1 1.7 3.7 3.7 3.7h85.8c2.1 0 3.7-1.7 3.7-3.7V7.1c0-2.1-1.6-3.7-3.7-3.7zm0 87.6c0 1.1-.8 1.9-1.9 1.9H9c-1 0-1.9-.8-1.9-1.9V9c0-1 .8-1.9 1.9-1.9h82c1 0 1.9.8 1.9 1.9v82z M10.8 10.8h78.4v26.1H10.8zm0 29.9h37.3v18.7H10.8zm41.1 0h37.3v3.7H51.9zm0 14.9h37.3v3.7H51.9zm0-7.5h37.3v3.7H51.9zm-41.1 15h37.3v26.1H10.8zm41.1 0h37.3v3.7H51.9zm0 7.4h37.3v3.7H51.9zm0 7.5h37.3v3.7H51.9zm0 7.4h37.3v3.7H51.9z"/></g>
			
	<linearGradient id="picture-gradient" x1="0" y1="0" y2="1" x2="0" >
		<stop stop-color="#ffffff" offset="0%"/>
		<stop stop-color="#e5eff9" offset="100%"/>
	</linearGradient>

		</defs>

		

			<use xlink:href="#background" fill="url(#background-gradient)" />

		

			<g mask="url(#mask)">
				<g transform="
				        translate(
                                50 50
)
                            translate(0 0)  scale(0.5)  
                            translate(
                                -50 -50
)">
						<use xlink:href="#picture" fill="url(#picture-gradient)" filter="url(#inner-shadow)" />
				</g>
			</g>

		

			<use xlink:href="#gloss-top" opacity="1" />


	</svg>
