
	<svg xmlns="http://www.w3.org/2000/svg" xmlns:xlink="http://www.w3.org/1999/xlink" version="1.1" width="128" height="128" viewBox="0 0 100 100">


		<defs>
			<linearGradient id="Gradient_2" gradientUnits="userSpaceOnUse" x1="50" y1="50" x2="50" y2="0" spreadMethod="pad">
			<stop offset="0%" stop-color="#FFFFFF" stop-opacity="0.7"/>
			<stop offset="100%" stop-color="#FFFFFF" stop-opacity="0.1"/>
		</linearGradient><linearGradient id="Gradient_3" gradientUnits="userSpaceOnUse" x1="50" y1="75" x2="50" y2="0" spreadMethod="pad">
			<stop offset="0%" stop-color="#FFFFFF" stop-opacity="0.1"/>
			<stop offset="100%" stop-color="#FFFFFF" stop-opacity="0.7"/>
		</linearGradient><g id="background">
			<path fill="url(#background-gradient)" stroke="none" d=" M 93.35 75 L 93.35 25 50 0 6.65 25 6.65 75 50 100 93.35 75 Z"/>
		</g><mask id="mask">
			<path fill="#FFFFFF" stroke="none" d=" M 93.35 75 L 93.35 25 50 0 6.65 25 6.65 75 50 100 93.35 75 Z"/>
		</mask><g id="gloss-top">
			<path fill="url(#Gradient_2)" stroke="none" d=" M 93.35 25.05 L 93.35 25 50 0 6.65 25 6.65 25.05 50 50 93.35 25.05 Z"/>
		</g><g id="gloss-right">
			<path fill="url(#Gradient_3)" stroke="none" d=" M 93.35 75 L 93.35 25 50 0 6.65 25 93.35 75 Z"/>
		</g><g id="gloss-left">
			<path fill="url(#Gradient_3)" stroke="none" d=" M 6.65 25 L 6.65 75 93.35 25 50 0 6.65 25 Z"/>
		</g>
			
	<linearGradient id="background-gradient" x1="0" y1="0" y2="1" x2="0" >
		<stop stop-color="#057c95" offset="0%"/>
		<stop stop-color="#042449" offset="100%"/>
	</linearGradient>

			
	<filter id="inner-shadow" x="-50%" y="-50%" width="200%" height="200%">
		<feComponentTransfer in="SourceAlpha">
			<feFuncA type="table" tableValues="1 0" />
		</feComponentTransfer>
		<feComponentTransfer>
			<feFuncA type="linear" slope="0.9"/>
		</feComponentTransfer>
		<feGaussianBlur stdDeviation="0" />
		<feOffset dx="-0.9999999999999999" dy="1" result="offsetblur" />
		<feFlood flood-color="#000" result="color" />
		<feComposite in2="offsetblur" operator="in" />
		<feComposite in2="SourceAlpha" operator="in" />
		<feMerge>
			<feMergeNode in="SourceGraphic" />
			<feMergeNode />
		</feMerge>
	</filter>

			
			<g transform="scale(2.0576130718209344) translate(0.40000057220458984 0.29999732971191406)" id="picture"><path d="M42.6 5c-2.7.3-4.7 2.7-4.4 5.4.1 1.2.6 2.2 1.4 3l-4.3 7.3c-.8-.4-1.7-.6-2.7-.5-2.3.2-4.1 2-4.4 4.2l-9 .9c-.7-2.1-2.8-3.5-5.1-3.3-2.7.3-4.7 2.7-4.4 5.4.1.8.4 1.6.8 2.2l-3.4 4.1c-.8-.4-1.8-.7-2.8-.6-2.7.3-4.7 2.7-4.4 5.4.3 2.7 2.7 4.7 5.3 4.4 2.7-.3 4.7-2.7 4.4-5.4-.1-.9-.4-1.6-.8-2.3l3.3-4.1c.8.5 1.8.7 2.9.6 2.3-.2 4.1-2 4.4-4.2l9-.9c.7 2.1 2.8 3.5 5.1 3.3 2.7-.3 4.7-2.7 4.4-5.4-.1-.9-.4-1.7-.9-2.4l4.5-7.6c.6.2 1.3.3 2 .2 2.7-.3 4.7-2.7 4.4-5.4-.2-2.6-2.6-4.5-5.3-4.3z"/></g>
			
	<linearGradient id="picture-gradient" x1="0" y1="0" y2="1" x2="0" >
		<stop stop-color="#eae8e8" offset="0%"/>
		<stop stop-color="#f6f5f4" offset="100%"/>
	</linearGradient>

		</defs>

		

			<use xlink:href="#background" fill="url(#background-gradient)" />

		

			<g mask="url(#mask)">
				<g transform="
				        translate(
                                50 50
)
                            translate(0 0)  scale(0.5)  
                            translate(
                                -50 -50
)">
						<use xlink:href="#picture" fill="url(#picture-gradient)" filter="url(#inner-shadow)" />
				</g>
			</g>

		

			<use xlink:href="#gloss-top" opacity="1" />


	</svg>
