
	<svg xmlns="http://www.w3.org/2000/svg" xmlns:xlink="http://www.w3.org/1999/xlink" version="1.1" width="128" height="128" viewBox="0 0 100 100">


		<defs>
			<linearGradient id="Gradient_2" gradientUnits="userSpaceOnUse" x1="50" y1="50" x2="50" y2="0" spreadMethod="pad">
			<stop offset="0%" stop-color="#FFFFFF" stop-opacity="0.7"/>
			<stop offset="100%" stop-color="#FFFFFF" stop-opacity="0.1"/>
		</linearGradient><linearGradient id="Gradient_3" gradientUnits="userSpaceOnUse" x1="50" y1="75" x2="50" y2="0" spreadMethod="pad">
			<stop offset="0%" stop-color="#FFFFFF" stop-opacity="0.1"/>
			<stop offset="100%" stop-color="#FFFFFF" stop-opacity="0.7"/>
		</linearGradient><g id="background">
			<path fill="url(#background-gradient)" stroke="none" d=" M 93.35 75 L 93.35 25 50 0 6.65 25 6.65 75 50 100 93.35 75 Z"/>
		</g><mask id="mask">
			<path fill="#FFFFFF" stroke="none" d=" M 93.35 75 L 93.35 25 50 0 6.65 25 6.65 75 50 100 93.35 75 Z"/>
		</mask><g id="gloss-top">
			<path fill="url(#Gradient_2)" stroke="none" d=" M 93.35 25.05 L 93.35 25 50 0 6.65 25 6.65 25.05 50 50 93.35 25.05 Z"/>
		</g><g id="gloss-right">
			<path fill="url(#Gradient_3)" stroke="none" d=" M 93.35 75 L 93.35 25 50 0 6.65 25 93.35 75 Z"/>
		</g><g id="gloss-left">
			<path fill="url(#Gradient_3)" stroke="none" d=" M 6.65 25 L 6.65 75 93.35 25 50 0 6.65 25 Z"/>
		</g>
			
	<linearGradient id="background-gradient" x1="0" y1="0" y2="1" x2="0" >
		<stop stop-color="#057c95" offset="0%"/>
		<stop stop-color="#042449" offset="100%"/>
	</linearGradient>

			
	<filter id="inner-shadow" x="-50%" y="-50%" width="200%" height="200%">
		<feComponentTransfer in="SourceAlpha">
			<feFuncA type="table" tableValues="1 0" />
		</feComponentTransfer>
		<feComponentTransfer>
			<feFuncA type="linear" slope="0.9"/>
		</feComponentTransfer>
		<feGaussianBlur stdDeviation="0" />
		<feOffset dx="-0.9999999999999999" dy="1" result="offsetblur" />
		<feFlood flood-color="#000" result="color" />
		<feComposite in2="offsetblur" operator="in" />
		<feComposite in2="SourceAlpha" operator="in" />
		<feMerge>
			<feMergeNode in="SourceGraphic" />
			<feMergeNode />
		</feMerge>
	</filter>

			
			<g transform="scale(3.3222590941082637) translate(0.05000019073486328 0)" id="picture"><path d="M17 8.5V1.8c0-1-.8-1.8-1.8-1.8-1.7 0-3.4.2-5 .7L2.1 3.2C.9 3.6 0 4.8 0 6.1v17.7c0 1.2.8 2.4 1.9 2.8l6.7 3c.8.3 1.7.5 2.6.5 1 0 1.8-.8 1.8-1.8V11.5c0-.3.2-.6.5-.7l2.3-.6c.7-.3 1.2-.9 1.2-1.7z M30 10.3c0-.1-.1-.1-.1-.2l-8-8h-.1s-.1 0-.1-.1h-.2l-3 .6c-.2 0-.4.3-.4.5v5.4c0 1.2-.8 2.2-1.9 2.6-.1 0-1.8.5-1.8.5-.2.1-.4.3-.4.5v14.4c0 .3.2.5.5.5h15c.3 0 .5-.2.5-.5V10.3zm-8-6.6l6.3 6.3H22V3.7zM26.5 22h-10c-.3 0-.5-.2-.5-.5s.2-.5.5-.5h10c.3 0 .5.2.5.5s-.2.5-.5.5zm0-3h-10c-.3 0-.5-.2-.5-.5s.2-.5.5-.5h10c.3 0 .5.2.5.5s-.2.5-.5.5zm0-3h-10c-.3 0-.5-.2-.5-.5s.2-.5.5-.5h10c.3 0 .5.2.5.5s-.2.5-.5.5z"/></g>
			
	<linearGradient id="picture-gradient" x1="0" y1="0" y2="1" x2="0" >
		<stop stop-color="#eae8e8" offset="0%"/>
		<stop stop-color="#f6f5f4" offset="100%"/>
	</linearGradient>

		</defs>

		

			<use xlink:href="#background" fill="url(#background-gradient)" />

		

			<g mask="url(#mask)">
				<g transform="
				        translate(
                                50 50
)
                            translate(0 0)  scale(0.5)  
                            translate(
                                -50 -50
)">
						<use xlink:href="#picture" fill="url(#picture-gradient)" filter="url(#inner-shadow)" />
				</g>
			</g>

		

			<use xlink:href="#gloss-top" opacity="1" />


	</svg>
