<?xml version="1.0" encoding="UTF-8" standalone="no"?>
<svg
   xmlns:dc="http://purl.org/dc/elements/1.1/"
   xmlns:cc="http://creativecommons.org/ns#"
   xmlns:rdf="http://www.w3.org/1999/02/22-rdf-syntax-ns#"
   xmlns:svg="http://www.w3.org/2000/svg"
   xmlns="http://www.w3.org/2000/svg"
   xmlns:xlink="http://www.w3.org/1999/xlink"
   xmlns:sodipodi="http://sodipodi.sourceforge.net/DTD/sodipodi-0.dtd"
   xmlns:inkscape="http://www.inkscape.org/namespaces/inkscape"
   version="1.1"
   width="128"
   height="128"
   viewBox="0 0 100 100"
   id="svg76"
   sodipodi:docname="StitchDraft1.svg"
   inkscape:version="0.92.1 r15371">
  <metadata
     id="metadata80">
    <rdf:RDF>
      <cc:Work
         rdf:about="">
        <dc:format>image/svg+xml</dc:format>
        <dc:type
           rdf:resource="http://purl.org/dc/dcmitype/StillImage" />
        <dc:title></dc:title>
      </cc:Work>
    </rdf:RDF>
  </metadata>
  <sodipodi:namedview
     pagecolor="#ffffff"
     bordercolor="#666666"
     borderopacity="1"
     objecttolerance="10"
     gridtolerance="10"
     guidetolerance="10"
     inkscape:pageopacity="0"
     inkscape:pageshadow="2"
     inkscape:window-width="1680"
     inkscape:window-height="1028"
     id="namedview78"
     showgrid="false"
     showborder="false"
     inkscape:zoom="0.921875"
     inkscape:cx="163.19634"
     inkscape:cy="14.38443"
     inkscape:window-x="-8"
     inkscape:window-y="-8"
     inkscape:window-maximized="1"
     inkscape:current-layer="layer8" />
  <defs
     id="defs64">
    <linearGradient
       id="Gradient_2"
       gradientUnits="userSpaceOnUse"
       x1="94"
       y1="25"
       x2="5"
       y2="25"
       spreadMethod="pad">
      <stop
         offset="0%"
         stop-color="#FFFFFF"
         stop-opacity="0.1"
         id="stop2" />
      <stop
         offset="100%"
         stop-color="#FFFFFF"
         stop-opacity="0.7"
         id="stop4" />
    </linearGradient>
    <linearGradient
       id="Gradient_3"
       gradientUnits="userSpaceOnUse"
       x1="7"
       y1="38"
       x2="95"
       y2="38"
       spreadMethod="pad">
      <stop
         offset="0%"
         stop-color="#FFFFFF"
         stop-opacity="0.1"
         id="stop7" />
      <stop
         offset="100%"
         stop-color="#FFFFFF"
         stop-opacity="0.7"
         id="stop9" />
    </linearGradient>
    <linearGradient
       id="Gradient_4"
       gradientUnits="userSpaceOnUse"
       x1="93"
       y1="38"
       x2="5"
       y2="38"
       spreadMethod="pad">
      <stop
         offset="0%"
         stop-color="#FFFFFF"
         stop-opacity="0.1"
         id="stop12" />
      <stop
         offset="100%"
         stop-color="#FFFFFF"
         stop-opacity="0.7"
         id="stop14" />
    </linearGradient>
    <g
       id="background">
      <path
         fill="url(#background-gradient)"
         stroke="none"
         d=" M 94.55 28.5 Q 94.55 26.8 93.55 25.05 92.5 23.25 91.05 22.4 L 53.55 0.85 Q 52.1 0 50 0 47.95 0 46.5 0.85 L 9 22.4 Q 7.5 23.25 6.5 25.05 5.45 26.8 5.45 28.5 L 5.45 71.5 Q 5.45 73.2 6.5 74.95 7.5 76.75 9 77.6 L 46.5 99.15 Q 47.95 100 50 100 52.1 100 53.55 99.15 L 91.05 77.6 Q 92.5 76.75 93.55 74.95 94.55 73.2 94.55 71.5 L 94.55 28.5 Z"
         id="path17" />
    </g>
    <mask
       id="mask">
      <path
         fill="#FFFFFF"
         stroke="none"
         d=" M 94.55 28.5 Q 94.55 26.8 93.55 25.05 92.5 23.25 91.05 22.4 L 53.55 0.85 Q 52.1 0 50 0 47.95 0 46.5 0.85 L 9 22.4 Q 7.5 23.25 6.5 25.05 5.45 26.8 5.45 28.5 L 5.45 71.5 Q 5.45 73.2 6.5 74.95 7.5 76.75 9 77.6 L 46.5 99.15 Q 47.95 100 50 100 52.1 100 53.55 99.15 L 91.05 77.6 Q 92.5 76.75 93.55 74.95 94.55 73.2 94.55 71.5 L 94.55 28.5 Z"
         id="path20" />
    </mask>
    <g
       id="gloss-top">
      <path
         fill="url(#Gradient_2)"
         stroke="none"
         d=" M 93.05 25.05 Q 92.05 23.25 90.6 22.4 L 53.3 0.85 Q 51.8 0 49.8 0 47.75 0 46.25 0.85 L 8.95 22.4 Q 7.5 23.25 6.5 25.05 5.45 26.8 5.45 28.5 L 5.45 50 94.1 50 94.1 28.5 Q 94.1 26.8 93.05 25.05 Z"
         id="path23" />
    </g>
    <g
       id="gloss-right">
      <path
         fill="url(#Gradient_3)"
         stroke="none"
         d=" M 93.55 25.05 Q 92.55 23.25 91.1 22.4 L 53.8 0.85 Q 52.3 0 50.3 0 48.25 0 46.75 0.85 L 9.45 22.4 Q 8.1 23.2 7 25 L 93.6 74.9 Q 94.6 73.15 94.6 71.5 L 94.6 28.5 Q 94.6 26.8 93.55 25.05 Z"
         id="path26" />
    </g>
    <g
       id="gloss-left">
      <path
         fill="url(#Gradient_4)"
         stroke="none"
         d=" M 93.05 25 Q 91.95 23.2 90.6 22.4 L 53.3 0.85 Q 51.8 0 49.8 0 47.75 0 46.25 0.85 L 8.95 22.4 Q 7.5 23.25 6.5 25.05 5.45 26.8 5.45 28.5 L 5.45 71.5 Q 5.45 73.25 6.5 75 L 93.05 25 Z"
         id="path29" />
    </g>
    <linearGradient
       id="background-gradient"
       x1="0"
       y1="0"
       y2="1"
       x2="0"
       gradientTransform="rotate(335 0.5 0.5)">
      <stop
         stop-color="#3366cc"
         offset="40%"
         id="stop32" />
      <stop
         stop-color="#000000"
         offset="100%"
         id="stop34" />
    </linearGradient>
    <filter
       id="drop-shadow">
      <feGaussianBlur
         in="SourceAlpha"
         stdDeviation="1"
         id="feGaussianBlur37" />
      <feComponentTransfer
         id="feComponentTransfer41">
        <feFuncA
           type="linear"
           slope="1"
           id="feFuncA39" />
      </feComponentTransfer>
      <feOffset
         dx="-10"
         dy="10"
         result="offsetblur"
         id="feOffset43" />
      <feFlood
         flood-color="#000000"
         id="feFlood45" />
      <feComposite
         in2="offsetblur"
         operator="in"
         id="feComposite47" />
      <feMerge
         id="feMerge53">
        <feMergeNode
           id="feMergeNode49" />
        <feMergeNode
           in="SourceGraphic"
           id="feMergeNode51" />
      </feMerge>
    </filter>
    <g
       transform="scale(1.023541485400212) translate(-1.1999998092651367 -1.1500043869018555)"
       id="picture">
      <path
         d="M70.6 23c.6 0 1.2-.1 1.7-.2l12 19.5c1.4-1.3 3.2-2.2 5.1-2.6L76.9 19.4c.7-1.1 1.1-2.5 1.1-3.9 0-4.2-3.3-7.5-7.4-7.5-4.1 0-7.5 3.3-7.5 7.5 0 4.1 3.3 7.5 7.5 7.5zm0-10.4c1.5 0 2.8 1.2 2.8 2.8-.1 1.6-1.3 2.8-2.8 2.8s-2.8-1.2-2.8-2.8c0-1.5 1.2-2.8 2.8-2.8zM29.3 22.9c.6 0 1.2-.1 1.7-.2l12 19.5c1.4-1.3 3.2-2.2 5.1-2.6L35.6 19.4c.3-.6.6-1.2.8-1.8h23.9c-.1-.7-.2-1.4-.2-2.2 0-1.2.2-2.4.6-3.5H35.9c-1.3-2.4-3.7-4-6.6-4-4.1 0-7.5 3.3-7.5 7.5 0 4.1 3.3 7.5 7.5 7.5zm0-10.3c1.5 0 2.8 1.2 2.8 2.8-.1 1.6-1.3 2.8-2.8 2.8s-2.8-1.2-2.8-2.8c0-1.5 1.2-2.8 2.8-2.8zm55 45.2l-12 19.5c-.6-.1-1.1-.2-1.7-.2-4.1 0-7.5 3.3-7.5 7.5 0 4.1 3.3 7.5 7.5 7.5 4.1 0 7.5-3.3 7.5-7.5 0-1.4-.4-2.8-1.1-3.9l12.4-20.3c-2-.5-3.7-1.4-5.1-2.6zM70.6 87.3c-1.5 0-2.8-1.2-2.8-2.8 0-1.5 1.2-2.8 2.8-2.8 1.5 0 2.8 1.2 2.8 2.8-.1 1.6-1.3 2.8-2.8 2.8zm20.7-44.8c-2.9 0-5.3 1.6-6.6 4H59.9c.4 1.1.6 2.3.6 3.5 0 .7-.1 1.5-.2 2.2h23.9c.9 3.1 3.8 5.3 7.2 5.3 4.1 0 7.5-3.3 7.5-7.5-.1-4.1-3.5-7.5-7.6-7.5zm0 10.3c-1.5 0-2.8-1.2-2.8-2.8 0-1.5 1.2-2.8 2.8-2.8 1.5 0 2.8 1.2 2.8 2.8 0 1.5-1.3 2.8-2.8 2.8z M67.3 74.7l-12-19.5c1.3-1.3 2.1-3.2 2.1-5.2s-.8-3.9-2.1-5.2l11.9-19.4c-1.9-.6-3.5-1.7-4.7-3.2L50.1 42.5c-3.4 0-6.3 2.2-7.2 5.3H19c.1.7.2 1.4.2 2.2 0 1.2-.2 2.4-.6 3.5h24.8c1.3 2.4 3.7 4 6.6 4h.1l12.5 20.4c1.2-1.5 2.8-2.6 4.7-3.2zM50 52.8c-1.5 0-2.8-1.2-2.8-2.8s1.2-2.8 2.8-2.8c1.5 0 2.8 1.2 2.8 2.8s-1.3 2.8-2.8 2.8z M60.3 82.1H36.4c-.2-.6-.4-1.1-.7-1.6l12.4-20.2c-1.9-.4-3.7-1.3-5.1-2.6L31.1 77c-.6-.2-1.2-.2-1.9-.2-4.1 0-7.5 3.3-7.5 7.5v.2c.1 4.2 3.4 7.5 7.6 7.5 3 0 5.5-1.7 6.7-4.2h24.7c-.4-1.1-.6-2.3-.6-3.5 0-.7.1-1.5.2-2.2zm-31 4.9c-1.5 0-2.7-1.2-2.8-2.6.1-1.4 1.3-2.6 2.8-2.6s2.7 1.2 2.8 2.6c-.1 1.5-1.3 2.6-2.8 2.6zm-3.4-12.3L14 55.2c1.3-1.3 2.1-3.2 2.1-5.2s-.8-3.9-2.1-5.2l11.9-19.4c-1.9-.6-3.5-1.7-4.7-3.2L8.8 42.5h-.1c-4.1 0-7.5 3.3-7.5 7.5 0 4.1 3.4 7.5 7.5 7.5l12.5 20.4c1.2-1.5 2.8-2.6 4.7-3.2zM8.7 52.8c-1.6 0-2.8-1.3-2.8-2.8s1.3-2.8 2.8-2.8 2.8 1.2 2.8 2.8-1.2 2.8-2.8 2.8z"
         id="path56" />
    </g>
    <linearGradient
       id="picture-gradient"
       x1="0"
       y1="0"
       y2="1"
       x2="0">
      <stop
         stop-color="#ffffff"
         offset="0%"
         id="stop59" />
      <stop
         stop-color="#e5eff9"
         offset="100%"
         id="stop61" />
    </linearGradient>
  </defs>
  <g
     inkscape:groupmode="layer"
     id="layer7"
     inkscape:label="Background"
     style="display:inline">
    <use
       style="fill:url(#background-gradient)"
       xlink:href="#background"
       id="use66"
       x="0"
       y="0"
       width="100%"
       height="100%" />
  </g>
  <g
     inkscape:groupmode="layer"
     id="layer8"
     inkscape:label="Icon">
    <g
       style=""
       mask="url(#mask)"
       id="g74">
      <g
         transform="             translate(                                 50 50 )                             translate(0 0)  scale(0.45)                               translate(                                 -50 -50 )"
         id="g72">
        <g
           id="g70"
           filter="url(#drop-shadow)">
          <use
             xlink:href="#picture"
             id="use68"
             fill="url(#picture-gradient)" />
        </g>
      </g>
    </g>
  </g>
  <g
     inkscape:groupmode="layer"
     id="layer9"
     inkscape:label="Text">
    <flowRoot
       xml:space="preserve"
       id="flowRoot162"
       style="font-style:normal;font-variant:normal;font-weight:normal;font-stretch:normal;font-size:64px;line-height:1.25;font-family:'Open Sans';-inkscape-font-specification:'Open Sans, Normal';font-variant-ligatures:normal;font-variant-caps:normal;font-variant-numeric:normal;font-feature-settings:normal;text-align:start;letter-spacing:0px;word-spacing:0px;writing-mode:lr-tb;text-anchor:start;fill:#000000;fill-opacity:1;stroke:none"
       transform="scale(0.78125)"><flowRegion
         id="flowRegion164"><rect
           id="rect166"
           width="224.54237"
           height="64.542374"
           x="125.28814"
           y="32" /></flowRegion><flowPara
         id="flowPara168">STI</flowPara></flowRoot>    <flowRoot
       xml:space="preserve"
       id="flowRoot170"
       style="font-style:normal;font-variant:normal;font-weight:normal;font-stretch:normal;font-size:53.33333206px;line-height:1.25;font-family:'Open Sans';-inkscape-font-specification:'Open Sans, Normal';font-variant-ligatures:normal;font-variant-caps:normal;font-variant-numeric:normal;font-feature-settings:normal;text-align:start;letter-spacing:0px;word-spacing:0px;writing-mode:lr-tb;text-anchor:start;fill:#000000;fill-opacity:1;stroke:none"><flowRegion
         id="flowRegion172"><rect
           id="rect174"
           width="213.15254"
           height="59.118645"
           x="135.05084"
           y="34.711864" /></flowRegion><flowPara
         id="flowPara176">STIT</flowPara></flowRoot>    <flowRoot
       xml:space="preserve"
       id="flowRoot194"
       style="font-style:normal;font-variant:normal;font-weight:normal;font-stretch:normal;font-size:64px;line-height:1.25;font-family:'Open Sans';-inkscape-font-specification:'Open Sans, Normal';font-variant-ligatures:normal;font-variant-caps:normal;font-variant-numeric:normal;font-feature-settings:normal;text-align:start;letter-spacing:0px;word-spacing:0px;writing-mode:lr-tb;text-anchor:start;fill:#000000;fill-opacity:1;stroke:none"
       transform="matrix(0.78125,0,0,0.78125,0.42372881,10.169492)"><flowRegion
         id="flowRegion196"><rect
           id="rect198"
           width="257.62711"
           height="109.01695"
           x="127.45763"
           y="15.18644" /></flowRegion><flowPara
         id="flowPara200">STITCH</flowPara></flowRoot>  </g>
</svg>
